<?xml version="1.0" encoding="utf-8"?>
<!-- Generator: Adobe Illustrator 27.8.0, SVG Export Plug-In . SVG Version: 6.00 Build 0)  -->
<svg version="1.1" id="bkg" xmlns="http://www.w3.org/2000/svg" xmlns:xlink="http://www.w3.org/1999/xlink" x="0px" y="0px"
	 viewBox="0 0 380 233.33" style="enable-background:new 0 0 380 233.33;" xml:space="preserve">
<style type="text/css">
	.st0{fill:#FFFFFF;}
</style>
<g>
	<g>
		<g>
			<g>
				<g>
					<g>
						<g>
							<g>
								<g>
									<g>
										<g>
											<g>
												<g>
													<path class="st0" d="M14.21,62.11c129.24,0,221.83,0,351.08,0c1.62,0,1.62-2.52,0-2.52c-129.24,0-221.84,0-351.08,0
														C12.6,59.59,12.6,62.11,14.21,62.11L14.21,62.11z"/>
												</g>
											</g>
										</g>
									</g>
								</g>
							</g>
							<g>
								<g>
									<g>
										<g>
											<g>
												<g>
													<path class="st0" d="M14.21,139.36c129.24,0,221.83,0,351.08,0c1.62,0,1.62-2.52,0-2.52c-129.24,0-221.84,0-351.08,0
														C12.6,136.83,12.6,139.36,14.21,139.36L14.21,139.36z"/>
												</g>
											</g>
										</g>
									</g>
								</g>
							</g>
						</g>
					</g>
				</g>
			</g>
			<g>
				<path class="st0" d="M15.86,115.37h5.55l0.03-29.37H16.1V74.65l26.24-0.03c2.63,0,4.93,0.11,6.92,0.34
					c1.99,0.22,3.87,0.64,5.64,1.24c1.77,0.6,3.23,1.41,4.35,2.42c1.13,1,2.02,2.31,2.66,3.9c0.65,1.59,0.97,3.46,0.97,5.61
					c0,2.67-0.73,5.01-2.19,7.04c-1.46,2.04-3.36,3.49-5.71,4.37v0.06c3.23,0.93,5.72,2.55,7.48,4.87c1.76,2.33,2.65,5.29,2.65,8.93
					c0,2.41-0.48,4.5-1.42,6.27c-0.95,1.77-2.28,3.18-4.01,4.22c-1.73,1.05-3.71,1.81-5.93,2.31c-2.23,0.49-4.72,0.74-7.49,0.74
					H15.86V115.37z M38.44,95.96h1.32c1.14,0,2.08-0.06,2.82-0.18c0.74-0.12,1.48-0.35,2.21-0.71c0.73-0.36,1.27-0.91,1.63-1.67
					c0.36-0.77,0.53-1.73,0.53-2.92c0-1.44-0.44-2.54-1.32-3.32c-0.88-0.77-1.92-1.16-3.13-1.16h-4.06V95.96z M38.44,104.41v10.96
					c0.15,0,0.38,0,0.71,0c0.44,0.02,0.86,0.03,1.28,0.02c0.42-0.01,0.83-0.02,1.22-0.05c0.4-0.02,0.78-0.06,1.14-0.11
					c0.37-0.05,0.72-0.11,1.05-0.2c0.33-0.08,0.65-0.18,0.95-0.32c0.3-0.13,0.58-0.3,0.82-0.48c0.25-0.18,0.46-0.41,0.66-0.7
					c0.19-0.28,0.36-0.59,0.5-0.91c0.14-0.34,0.25-0.73,0.32-1.18c0.07-0.45,0.11-0.95,0.11-1.48c0-0.97-0.15-1.8-0.44-2.52
					c-0.3-0.71-0.64-1.26-1.06-1.64c-0.42-0.39-0.93-0.7-1.55-0.92c-0.61-0.23-1.17-0.36-1.66-0.42c-0.5-0.05-1.05-0.08-1.68-0.08
					C40.58,104.38,39.79,104.38,38.44,104.41z"/>
				<path class="st0" d="M121.41,112.53c0.17,0.67,0.32,1.18,0.44,1.52c0.12,0.34,0.3,0.65,0.53,0.92c0.23,0.27,0.51,0.4,0.84,0.4
					h2.78v11.57H99.36l-0.03-11.57h3.86c0-3.52-0.72-5.29-2.16-5.29h-8.87c-0.28,0-0.49,0.11-0.64,0.34
					c-0.15,0.22-0.23,0.46-0.26,0.69c-0.02,0.23-0.04,0.58-0.06,1.03c0,0.6,0.11,1.29,0.35,2.06c0.24,0.77,0.58,1.16,1.03,1.16h2.71
					v11.57H73.44v-11.57c0.95,0,1.78-0.09,2.52-0.26c1.67-0.41,2.87-1.43,3.57-3.07c0.24-0.52,0.65-1.9,1.23-4.16l5.54-21.89h-6.83
					V74.62h32.05L121.41,112.53z M100.42,102.02l-3.77-16.38l-3.61,16.38H100.42z"/>
				<path class="st0" d="M162.28,126.94c-5.68,0-14.38,0.01-26.12,0.03v-11.61h4.97V85.99h-4.99V74.62h32.72
					c2.65,0,4.98,0.26,7.01,0.77c2.04,0.52,3.82,1.34,5.36,2.46c1.54,1.13,2.7,2.64,3.5,4.55c0.8,1.9,1.2,4.17,1.2,6.82
					c0,3.11-1.01,5.67-3.01,7.67c-2.01,2-4.87,3.35-8.56,4.03c3.2,0.73,5.49,1.75,6.86,3.06c1.38,1.31,2.06,2.95,2.06,4.93v3
					c0,0.62,0.05,1.12,0.15,1.48c0.1,0.37,0.32,0.72,0.66,1.05c0.34,0.34,0.88,0.56,1.6,0.71c0.72,0.14,1.68,0.21,2.88,0.21v11.57
					h-8.44c-0.84,0-1.5-0.01-1.99-0.02c-0.48-0.01-1.13-0.04-1.93-0.08c-0.81-0.04-1.46-0.11-1.96-0.21
					c-0.49-0.09-1.08-0.24-1.76-0.43c-0.67-0.2-1.22-0.43-1.64-0.69c-0.42-0.27-0.86-0.61-1.32-1.03c-0.46-0.42-0.82-0.9-1.08-1.43
					c-0.26-0.53-0.47-1.18-0.65-1.92c-0.17-0.75-0.26-1.55-0.26-2.44v-6.29c0-1.26-0.07-2.33-0.21-3.17
					c-0.14-0.85-0.41-1.66-0.81-2.42c-0.4-0.77-1-1.33-1.82-1.69c-0.82-0.37-1.87-0.55-3.16-0.55h-3.15v10.8h3.9V126.94z
					 M160.15,97.28c1.1,0,2.09-0.08,2.98-0.26c0.89-0.17,1.73-0.46,2.53-0.87c0.8-0.41,1.42-1,1.87-1.77
					c0.45-0.78,0.68-1.7,0.68-2.78c0-1.7-0.54-3.05-1.63-4.08c-1.09-1.02-2.58-1.53-4.5-1.53h-3.9v11.29H160.15z"/>
				<path class="st0" d="M199.25,115.37h5.54l0.03-29.37h-5.35V74.65l26.24-0.03c2.62,0,4.92,0.11,6.91,0.34
					c1.98,0.22,3.86,0.64,5.64,1.24c1.77,0.6,3.22,1.41,4.35,2.42c1.13,1,2.01,2.31,2.65,3.9c0.65,1.59,0.97,3.46,0.97,5.61
					c0,2.67-0.73,5.01-2.19,7.04c-1.46,2.04-3.36,3.49-5.71,4.37v0.06c3.22,0.93,5.72,2.55,7.48,4.87c1.77,2.33,2.64,5.29,2.64,8.93
					c0,2.41-0.47,4.5-1.42,6.27c-0.94,1.77-2.28,3.18-4.01,4.22c-1.73,1.05-3.7,1.81-5.93,2.31c-2.23,0.49-4.73,0.74-7.5,0.74
					h-30.36V115.37z M221.81,95.96h1.33c1.15,0,2.08-0.06,2.83-0.18c0.74-0.12,1.47-0.35,2.2-0.71c0.74-0.36,1.28-0.91,1.64-1.67
					c0.35-0.77,0.52-1.73,0.52-2.92c0-1.44-0.43-2.54-1.32-3.32c-0.87-0.77-1.92-1.16-3.12-1.16h-4.07V95.96z M221.81,104.41v10.96
					c0.16,0,0.39,0,0.72,0c0.42,0.02,0.85,0.03,1.27,0.02c0.42-0.01,0.83-0.02,1.23-0.05c0.39-0.02,0.78-0.06,1.14-0.11
					c0.37-0.05,0.72-0.11,1.06-0.2c0.33-0.08,0.65-0.18,0.94-0.32c0.31-0.13,0.58-0.3,0.83-0.48c0.25-0.18,0.47-0.41,0.66-0.7
					c0.19-0.28,0.36-0.59,0.5-0.91c0.14-0.34,0.25-0.73,0.33-1.18c0.07-0.45,0.1-0.95,0.1-1.48c0-0.97-0.14-1.8-0.43-2.52
					c-0.29-0.71-0.65-1.26-1.06-1.64c-0.41-0.39-0.93-0.7-1.55-0.92c-0.61-0.23-1.17-0.36-1.66-0.42c-0.49-0.05-1.05-0.08-1.68-0.08
					C223.97,104.38,223.17,104.38,221.81,104.41z"/>
				<path class="st0" d="M292.12,95.74l-2.45-9.74h-6.87v9.1h6.61v11.34h-6.61v8.93h7.06l0.42-1.97l2.03-8.61h8.8v22.15h-41.24
					v-11.57h5.1V85.99h-5.1V74.62h40.88V95.7L292.12,95.74z"/>
				<path class="st0" d="M340.73,126.94c-5.68,0-14.38,0.01-26.12,0.03v-11.61h4.97V85.99h-5V74.62h32.72
					c2.65,0,4.99,0.26,7.01,0.77c2.04,0.52,3.82,1.34,5.36,2.46c1.54,1.13,2.69,2.64,3.49,4.55c0.8,1.9,1.2,4.17,1.2,6.82
					c0,3.11-1.01,5.67-3.02,7.67c-2.01,2-4.86,3.35-8.56,4.03c3.2,0.73,5.5,1.75,6.87,3.06c1.38,1.31,2.06,2.95,2.06,4.93v3
					c0,0.62,0.05,1.12,0.15,1.48c0.09,0.37,0.31,0.72,0.65,1.05c0.35,0.34,0.87,0.56,1.6,0.71c0.72,0.14,1.69,0.21,2.89,0.21v11.57
					h-8.44c-0.84,0-1.5-0.01-1.99-0.02c-0.48-0.01-1.13-0.04-1.93-0.08c-0.81-0.04-1.46-0.11-1.96-0.21
					c-0.49-0.09-1.08-0.24-1.75-0.43c-0.68-0.2-1.23-0.43-1.65-0.69c-0.42-0.27-0.87-0.61-1.32-1.03c-0.46-0.42-0.82-0.9-1.08-1.43
					c-0.26-0.53-0.47-1.18-0.64-1.92c-0.17-0.75-0.26-1.55-0.26-2.44v-6.29c0-1.26-0.07-2.33-0.21-3.17
					c-0.13-0.85-0.41-1.66-0.81-2.42c-0.4-0.77-1-1.33-1.82-1.69c-0.82-0.37-1.87-0.55-3.16-0.55h-3.16v10.8h3.9V126.94z
					 M338.6,97.28c1.1,0,2.09-0.08,2.98-0.26c0.89-0.17,1.74-0.46,2.53-0.87c0.81-0.41,1.42-1,1.87-1.77
					c0.45-0.78,0.67-1.7,0.67-2.78c0-1.7-0.53-3.05-1.62-4.08c-1.09-1.02-2.59-1.53-4.5-1.53h-3.9v11.29H338.6z"/>
			</g>
		</g>
		<g>
			<g>
				<path class="st0" d="M121.93,45.95l2.45,3.67l-0.34,0.23c-0.24-0.23-0.44-0.34-0.59-0.34c-0.16,0-0.59,0.2-1.3,0.61
					c-1.48,0.85-2.72,1.43-3.74,1.73c-1.01,0.3-2.21,0.44-3.6,0.44c-2.78,0-5.06-0.66-6.84-1.97c-1.06-0.77-1.87-1.72-2.48-2.85
					c-0.7-1.3-1.04-2.73-1.04-4.29c0-2.13,0.62-3.99,1.87-5.56c1.87-2.36,4.7-3.54,8.5-3.54c1.39,0,2.59,0.15,3.58,0.44
					c1,0.29,2.25,0.87,3.74,1.72c0.71,0.41,1.15,0.61,1.3,0.61c0.15,0,0.35-0.1,0.59-0.33l0.34,0.24l-2.45,3.67l-0.35-0.23
					c0.02-0.14,0.02-0.26,0.02-0.35c0-0.25-0.11-0.48-0.32-0.7c-0.21-0.22-0.59-0.48-1.14-0.8c-1.52-0.85-3.14-1.28-4.84-1.28
					c-2.01,0-3.62,0.5-4.81,1.51c-1.41,1.18-2.11,2.71-2.11,4.61c0,1.89,0.7,3.43,2.11,4.61c1.19,1.01,2.8,1.51,4.81,1.51
					c1.7,0,3.31-0.43,4.84-1.29c0.55-0.31,0.93-0.57,1.14-0.79c0.22-0.22,0.32-0.45,0.32-0.71c0-0.09-0.01-0.21-0.02-0.33
					L121.93,45.95z"/>
			</g>
			<g>
				<path class="st0" d="M138.55,49.09h10.81c0.27,0,0.47-0.06,0.61-0.18c0.14-0.12,0.25-0.34,0.34-0.64h0.41v4.55h-0.41
					c-0.09-0.31-0.19-0.52-0.34-0.64c-0.14-0.12-0.34-0.18-0.61-0.18h-15.48v-0.41c0.31-0.08,0.53-0.2,0.65-0.34
					c0.12-0.14,0.18-0.35,0.18-0.61V35.75c0-0.27-0.06-0.47-0.18-0.6c-0.12-0.14-0.33-0.25-0.65-0.34V34.4h5.49v0.41
					c-0.31,0.08-0.52,0.18-0.64,0.33c-0.12,0.14-0.18,0.34-0.18,0.61V49.09z"/>
			</g>
			<g>
				<path class="st0" d="M173.3,47.51h-8.01l-1.19,2.48c-0.16,0.34-0.23,0.61-0.23,0.81c0,0.38,0.28,0.64,0.86,0.79V52h-5.82v-0.41
					c0.34-0.07,0.6-0.19,0.78-0.36c0.18-0.18,0.39-0.51,0.62-1l6.47-13.53c0.21-0.43,0.31-0.77,0.31-1.03
					c0-0.39-0.25-0.68-0.75-0.85V34.4h6.25v0.41c-0.51,0.15-0.77,0.4-0.77,0.76c0,0.25,0.08,0.53,0.25,0.85l6.7,13.57
					c0.28,0.57,0.54,0.97,0.75,1.18c0.22,0.21,0.5,0.35,0.86,0.42V52h-6.48v-0.41c0.56-0.1,0.85-0.36,0.85-0.8
					c0-0.18-0.09-0.45-0.26-0.8L173.3,47.51z M172.19,45.1l-2.86-6.27l-2.9,6.27H172.19z"/>
			</g>
			<g>
				<path class="st0" d="M205.12,35.88l-2.1,4.15l-0.36-0.2c0.01-0.09,0.01-0.16,0.01-0.21c0-0.29-0.24-0.61-0.75-0.94
					c-1.52-1.06-3.32-1.59-5.39-1.59c-0.91,0-1.71,0.1-2.41,0.34c-0.5,0.16-0.91,0.43-1.23,0.77c-0.32,0.34-0.47,0.72-0.47,1.13
					c0,0.65,0.4,1.11,1.2,1.35c0.41,0.12,1.3,0.25,2.66,0.39l2.02,0.2c1.2,0.13,2.18,0.31,2.92,0.53c0.75,0.23,1.4,0.53,1.98,0.94
					c0.58,0.42,1.05,0.97,1.38,1.66c0.34,0.69,0.51,1.42,0.51,2.2c0,1.24-0.4,2.33-1.2,3.29c-0.72,0.88-1.84,1.53-3.37,1.95
					c-1.13,0.32-2.34,0.48-3.64,0.48c-2.33,0-4.63-0.56-6.9-1.67c-0.48-0.23-0.77-0.34-0.86-0.34c-0.12,0-0.3,0.09-0.53,0.28
					l-0.37-0.2l1.92-4.32l0.37,0.18c0,0.07,0,0.13,0,0.17c0,0.39,0.18,0.74,0.55,1.07c0.56,0.5,1.42,0.93,2.59,1.29
					c1.17,0.36,2.28,0.54,3.33,0.54c1.15,0,2.12-0.19,2.93-0.58c0.44-0.22,0.8-0.49,1.07-0.85c0.27-0.37,0.4-0.73,0.4-1.12
					c0-0.59-0.31-1-0.94-1.26c-0.44-0.16-1.32-0.32-2.65-0.47l-1.98-0.21c-1.33-0.13-2.27-0.26-2.82-0.4
					c-0.55-0.12-1.1-0.32-1.66-0.6c-0.78-0.39-1.39-0.97-1.83-1.74c-0.41-0.69-0.61-1.49-0.61-2.39c0-1.49,0.51-2.72,1.54-3.7
					c1.34-1.28,3.35-1.92,6.03-1.92c1.13,0,2.18,0.12,3.15,0.34c0.97,0.23,2.18,0.65,3.63,1.26c0.5,0.2,0.81,0.3,0.92,0.3
					c0.17,0,0.38-0.1,0.62-0.3L205.12,35.88z"/>
			</g>
			<g>
				<path class="st0" d="M231.01,35.88l-2.1,4.15l-0.36-0.2c0.01-0.09,0.01-0.16,0.01-0.21c0-0.29-0.25-0.61-0.75-0.94
					c-1.53-1.06-3.33-1.59-5.4-1.59c-0.9,0-1.71,0.1-2.41,0.34c-0.5,0.16-0.91,0.43-1.23,0.77c-0.31,0.34-0.47,0.72-0.47,1.13
					c0,0.65,0.4,1.11,1.2,1.35c0.41,0.12,1.3,0.25,2.66,0.39l2.02,0.2c1.21,0.13,2.18,0.31,2.92,0.53c0.74,0.23,1.4,0.53,1.98,0.94
					c0.58,0.42,1.05,0.97,1.38,1.66c0.34,0.69,0.51,1.42,0.51,2.2c0,1.24-0.4,2.33-1.2,3.29c-0.73,0.88-1.84,1.53-3.37,1.95
					c-1.13,0.32-2.34,0.48-3.64,0.48c-2.33,0-4.63-0.56-6.91-1.67c-0.47-0.23-0.77-0.34-0.86-0.34c-0.11,0-0.28,0.09-0.53,0.28
					l-0.38-0.2l1.91-4.32l0.37,0.18c0,0.07,0,0.13,0,0.17c0,0.39,0.19,0.74,0.56,1.07c0.56,0.5,1.42,0.93,2.59,1.29
					c1.18,0.36,2.28,0.54,3.33,0.54c1.15,0,2.13-0.19,2.93-0.58c0.44-0.22,0.8-0.49,1.07-0.85c0.27-0.37,0.4-0.73,0.4-1.12
					c0-0.59-0.31-1-0.94-1.26c-0.44-0.16-1.32-0.32-2.66-0.47l-1.99-0.21c-1.33-0.13-2.27-0.26-2.82-0.4
					c-0.55-0.12-1.1-0.32-1.66-0.6c-0.78-0.39-1.39-0.97-1.84-1.74c-0.41-0.69-0.61-1.49-0.61-2.39c0-1.49,0.52-2.72,1.54-3.7
					c1.34-1.28,3.35-1.92,6.03-1.92c1.13,0,2.18,0.12,3.15,0.34c0.97,0.23,2.18,0.65,3.64,1.26c0.5,0.2,0.8,0.3,0.91,0.3
					c0.18,0,0.4-0.1,0.63-0.3L231.01,35.88z"/>
			</g>
			<g>
				<path class="st0" d="M241.35,50.64V35.74c0-0.26-0.06-0.46-0.18-0.59c-0.12-0.14-0.34-0.25-0.65-0.34V34.4h5.49v0.41
					c-0.3,0.08-0.52,0.18-0.64,0.33c-0.12,0.14-0.18,0.34-0.18,0.6v14.91c0,0.26,0.06,0.47,0.19,0.61c0.13,0.15,0.34,0.26,0.63,0.34
					V52h-5.49v-0.41c0.31-0.08,0.53-0.2,0.65-0.34C241.29,51.11,241.35,50.9,241.35,50.64z"/>
			</g>
			<g>
				<path class="st0" d="M273.1,45.95l2.45,3.67l-0.34,0.23c-0.23-0.23-0.43-0.34-0.59-0.34c-0.15,0-0.58,0.2-1.3,0.61
					c-1.48,0.85-2.72,1.43-3.74,1.73c-1,0.3-2.21,0.44-3.6,0.44c-2.77,0-5.05-0.66-6.83-1.97c-1.04-0.77-1.87-1.72-2.47-2.85
					c-0.7-1.3-1.05-2.73-1.05-4.29c0-2.13,0.63-3.99,1.87-5.56c1.87-2.36,4.7-3.54,8.5-3.54c1.39,0,2.59,0.15,3.58,0.44
					c1,0.29,2.24,0.87,3.74,1.72c0.72,0.41,1.14,0.61,1.3,0.61c0.16,0,0.36-0.1,0.59-0.33l0.34,0.24l-2.45,3.67l-0.35-0.23
					c0.02-0.14,0.03-0.26,0.03-0.35c0-0.25-0.11-0.48-0.32-0.7c-0.21-0.22-0.59-0.48-1.15-0.8c-1.53-0.85-3.13-1.28-4.84-1.28
					c-2.01,0-3.61,0.5-4.81,1.51c-1.4,1.18-2.12,2.71-2.12,4.61c0,1.89,0.71,3.43,2.12,4.61c1.2,1.01,2.8,1.51,4.81,1.51
					c1.7,0,3.31-0.43,4.84-1.29c0.55-0.31,0.94-0.57,1.15-0.79c0.21-0.22,0.32-0.45,0.32-0.71c0-0.09-0.01-0.21-0.03-0.33
					L273.1,45.95z"/>
			</g>
		</g>
		<g>
			<g>
				<g>
					<path class="st0" d="M210.52,151.83c-3.37,0-3.45,2.06-3.45,2.06s0.61-0.82,1.68-0.82c0.7,0,3.02,0.64,3.11,2.63
						c0.13,3.16-4.12,3.54-4.12,3.54c-6.17,0-5.31-4.5-10.74-9.48c-4.34-3.99-7.56,0.08-7.56,1.95c0,1.01,0.26,3.07,0.66,3.98
						c2.29,5.15,10.42,7.49,13.93,7.49c5.42,0,10.77-2.6,10.77-7.17C214.81,154.52,213.52,151.83,210.52,151.83z"/>
				</g>
			</g>
			<g>
				<g>
					<path class="st0" d="M169.49,151.83c3.37,0,3.43,2.06,3.43,2.06s-0.61-0.82-1.67-0.82c-0.7,0-3.02,0.64-3.1,2.63
						c-0.14,3.16,4.12,3.54,4.12,3.54c6.17,0,5.3-4.5,10.73-9.48c4.34-3.99,7.57,0.08,7.57,1.95c0,1.01-0.26,3.07-0.66,3.98
						c-2.3,5.15-10.43,7.49-13.94,7.49c-5.41,0-10.76-2.6-10.76-7.17C165.2,154.52,166.49,151.83,169.49,151.83z"/>
				</g>
			</g>
		</g>
	</g>
	<path class="st0" d="M292.06,174.68c4.09-6.26,6.02-9.4,9.73-15.75c-77.67,20.96-146.38,20.96-224.05,0
		c3.7,6.35,5.64,9.5,9.73,15.75c-6.76,3.17-10.23,4.67-17.29,7.53c82.29,22.73,156.88,22.73,239.17,0
		C302.27,179.35,298.81,177.85,292.06,174.68z M170.96,192.85c-0.93,0.77-2.16,1.16-3.67,1.16c-2.19,0-4.17-0.81-5.93-2.44
		l1.85-2.26c1.48,1.31,2.87,1.96,4.14,1.96c0.56,0,1.01-0.12,1.34-0.36c0.32-0.25,0.48-0.58,0.48-0.99c0-0.42-0.17-0.75-0.51-0.99
		c-0.35-0.25-1.03-0.49-2.04-0.75c-1.61-0.38-2.79-0.88-3.54-1.49c-0.75-0.62-1.12-1.58-1.12-2.89c0-1.32,0.47-2.33,1.41-3.04
		c0.95-0.71,2.12-1.08,3.54-1.08c0.92,0,1.85,0.16,2.77,0.48c0.92,0.32,1.73,0.77,2.42,1.35l-1.57,2.26
		c-1.21-0.91-2.44-1.37-3.72-1.37c-0.51,0-0.92,0.12-1.22,0.36c-0.3,0.25-0.44,0.57-0.44,0.97s0.18,0.72,0.54,0.96
		c0.36,0.24,1.2,0.52,2.51,0.85c1.31,0.32,2.33,0.81,3.06,1.45c0.73,0.65,1.09,1.59,1.09,2.83
		C172.36,191.07,171.89,192.08,170.96,192.85z M187.08,193.85h-3.09v-5.45h-5.5v5.45h-3.09V180h3.09v5.79h5.5V180h3.09V193.85z
		 M202.53,191.94c-1.4,1.37-3.12,2.05-5.17,2.05c-2.05,0-3.77-0.68-5.17-2.05c-1.4-1.37-2.1-3.07-2.1-5.1c0-2.04,0.7-3.74,2.1-5.1
		c1.39-1.37,3.12-2.06,5.17-2.06c2.04,0,3.77,0.69,5.17,2.06c1.4,1.36,2.1,3.06,2.1,5.1C204.63,188.87,203.93,190.58,202.53,191.94z
		 M217.14,188.8c-1,0.8-2.52,1.19-4.57,1.19h-1.85v3.86h-3.08V180h4.89c2.13,0,3.67,0.42,4.64,1.24c0.98,0.82,1.46,2.1,1.46,3.8
		C218.63,186.76,218.13,188.01,217.14,188.8z"/>
	<path class="st0" d="M197.37,182.39c-1.16,0-2.13,0.43-2.92,1.31c-0.79,0.87-1.19,1.92-1.19,3.16c0,1.24,0.4,2.28,1.19,3.15
		c0.79,0.86,1.77,1.3,2.92,1.3c1.16,0,2.13-0.44,2.92-1.3c0.79-0.86,1.19-1.91,1.19-3.15c0-1.24-0.4-2.29-1.19-3.16
		C199.5,182.82,198.53,182.39,197.37,182.39z"/>
	<path class="st0" d="M212.49,182.67h-1.77v4.65h2.09c1.03,0,1.73-0.21,2.09-0.62c0.38-0.42,0.56-1.02,0.56-1.82
		c0-0.8-0.24-1.37-0.72-1.71C214.26,182.83,213.5,182.67,212.49,182.67z"/>
</g>
</svg>
