<?xml version="1.0" encoding="utf-8"?>
<!-- Generator: Adobe Illustrator 27.8.0, SVG Export Plug-In . SVG Version: 6.00 Build 0)  -->
<svg version="1.1" id="bkg" xmlns="http://www.w3.org/2000/svg" xmlns:xlink="http://www.w3.org/1999/xlink" x="0px" y="0px"
	 viewBox="0 0 380 182.89" style="enable-background:new 0 0 380 182.89;" xml:space="preserve">
<style type="text/css">
	.st0{fill:#2D2A2B;stroke:#FFFFFF;stroke-width:5;stroke-miterlimit:10;}
</style>
<g>
	<g>
		<g>
			<path class="st0" d="M369.22,94.2c0,33.03-38.69,51.82-77.84,51.82c-25.31,0-84.05-16.87-100.6-54.11
				c-0.26-0.58-0.52-1.23-0.76-1.94c-0.24,0.71-0.49,1.36-0.75,1.94c-16.6,37.24-75.36,54.11-100.73,54.11
				c-39.07,0-77.76-18.79-77.76-51.82C10.78,83.42,20.1,64,41.8,64c24.32,0,24.8,14.91,24.8,14.91s-4.39-5.93-12.09-5.93
				c-5.04,0-21.84,4.61-22.42,19.01c-1.02,22.81,29.75,25.6,29.75,25.6c44.57,0,38.33-32.52,77.53-68.49
				c23.62-21.72,42.67-10.4,50.63,2.28c7.95-12.68,26.98-24,50.58-2.28c39.23,35.97,32.99,68.49,77.57,68.49
				c0,0,30.73-2.79,29.76-25.6c-0.65-14.4-17.38-19.01-22.45-19.01c-7.67,0-12.11,5.93-12.11,5.93S313.93,64,338.25,64
				C359.95,64,369.22,83.42,369.22,94.2z"/>
		</g>
	</g>
</g>
</svg>
