<?xml version="1.0" encoding="utf-8"?>
<!-- Generator: Adobe Illustrator 27.8.0, SVG Export Plug-In . SVG Version: 6.00 Build 0)  -->
<svg version="1.1" xmlns="http://www.w3.org/2000/svg" xmlns:xlink="http://www.w3.org/1999/xlink" x="0px" y="0px"
	 viewBox="0 0 500 193.56" style="enable-background:new 0 0 500 193.56;" xml:space="preserve">
<style type="text/css">
	.st0{fill:#212121;}
</style>
<g id="BACKGROUND">
</g>
<g id="OBJECTS">
	<g>
		<path class="st0" d="M296.71,94.57c-1.82,2.52-3.59,5.08-5.47,7.56c-1.7,2.24-3.41,4.5-5.35,6.52c-1.5,1.56-3.28,3.04-5.79,2.01
			c-2.31-0.95-3.19-3.04-3.53-5.2c-0.34-2.13-0.26-4.36-0.09-6.53c0.17-2.17,0.73-4.31,1.02-6.48c0.08-0.57-0.23-1.19-0.36-1.79
			c-0.53,0.24-1.16,0.36-1.57,0.73c-1.88,1.65-3.62,3.47-5.55,5.05c-1.99,1.63-4.25,2.83-6.87,1.45c-2.25-1.18-2.67-3.43-2.54-5.65
			c0.23-3.74,0.7-7.46,1.12-11.18c0.34-3.08,0.74-6.15,1.12-9.22c0.42-0.35,0.83-0.7,1.25-1.05c-0.29-0.22-0.59-0.43-0.88-0.65
			c-0.11,0.58-0.22,1.16-0.33,1.73c-1.42,1.1-3.04,2.03-4.21,3.35c-4.79,5.38-9.37,10.96-14.19,16.32
			c-2.51,2.79-5.23,5.42-8.11,7.83c-1.63,1.36-3.68,2.4-5.71,3.08c-3.28,1.11-6.57-0.65-7.31-3.99c-0.6-2.72-0.56-5.59-0.87-8.38
			c-0.06-0.55-0.3-1.42-0.64-1.53c-0.44-0.14-1.17,0.23-1.62,0.58c-1.47,1.16-2.77,2.55-4.31,3.6c-0.99,0.67-2.56,1.52-3.39,1.17
			c-3.28-1.4-5.29,0.7-7.69,2.09c-2.7,1.56-5.44,3.2-8.37,4.2c-6.4,2.2-10.28,0.06-12.28-6.29c-2.01-6.38-1.97-6.34-7.16-1.59
			c-2.77,2.53-5.52,5.15-8.61,7.23c-3.34,2.24-7.08,0.66-7.97-3.31c-0.67-3.01-0.73-6.18-0.83-9.29c-0.09-2.81,0.21-5.63,0.11-8.43
			c-0.02-0.44-1.64-1.35-1.92-1.16c-2.06,1.39-3.99,2.99-5.93,4.57c-3.88,3.17-7.57,6.61-11.66,9.48c-4.2,2.94-8.23,0.89-8.71-4.2
			c-0.2-2.15-0.07-4.42,0.4-6.52c1.69-7.64,3.57-15.23,5.4-22.84c0.44-1.82,1.14-3.6,1.36-5.44c0.16-1.32-0.72-2.49-2.22-2.35
			c-3.73,0.35-7.5,0.66-11.15,1.45c-1.71,0.37-3.34,1.66-4.75,2.84c-15.17,12.64-30.25,25.38-45.44,38c-2.33,1.93-3.47,4.08-3.9,7.1
			c-1.24,8.82-5.96,15.7-12.88,21.12c-6.48,5.08-13.75,8.74-21.58,11.21c-4.41,1.39-7.71,0.7-8.48-1.5c-1.15-3.26,1.21-5.34,3-7.39
			c2.26-2.59,4.72-5.04,7.35-7.25c8.15-6.86,16.37-13.65,24.69-20.31c2.77-2.22,3.88-4.69,3.11-8.17
			c-1.35-6.11-2.65-12.24-3.83-18.39c-1.3-6.76-2.32-13.56-3.7-20.3c-0.84-4.12-0.25-8.08,0.3-12.13
			c1.12-8.26,5.8-13.79,13.24-16.91c7.3-3.06,15.01-4.54,22.96-3.81c2.76,0.25,5.6,0.98,8.12,2.12c4.59,2.09,7.36,5.78,7.6,11
			c0.24,5.08-0.02,10.1-3.78,14.07c-0.48,0.51-1.86,0.7-2.49,0.38c-0.64-0.32-1.35-1.59-1.18-2.22c0.64-2.41,1.89-4.67,2.43-7.1
			c1.53-6.88-1.92-11.94-8.86-12.71c-6.9-0.76-13.77-0.38-20.41,2.02c-8.76,3.16-12.74,8.18-13.1,17.43
			c-0.16,4.04-0.03,8.2,0.73,12.16c2.06,10.76,4.5,21.44,6.82,32.15c0.38,1.77,1.93,2.28,3.54,1.04c4.22-3.25,8.43-6.53,12.51-9.95
			c8.17-6.84,16.26-13.77,24.35-20.71c0.41-0.35,0.49-1.08,0.73-1.64c-0.56-0.2-1.15-0.62-1.69-0.57
			c-8.09,0.83-16.18,1.72-24.27,2.57c-0.9,0.1-1.86,0.18-2.72-0.03c-0.46-0.11-0.95-0.81-1.1-1.34c-0.15-0.53-0.08-1.35,0.25-1.71
			c0.6-0.65,1.42-1.35,2.25-1.52c3.37-0.69,6.76-1.32,10.17-1.72c7.15-0.84,14.31-1.65,21.49-2.19c3.36-0.25,5.95-1.53,8.26-3.85
			c2.43-2.45,4.96-4.8,7.53-7.09c2.34-2.08,4.76-4.08,7.21-6.03c2.04-1.63,4.46-2.83,6.93-1.51c2.98,1.59,2.79,4.5,2.2,7.43
			c-1.61,7.91-0.91,7.66,6.91,7.06c11.86-0.91,23.71-2.02,35.57-2.91c5.62-0.42,11.27-0.48,16.91-0.77
			c5.32-0.27,10.63-0.68,15.94-0.94c1.86-0.09,3.79-0.18,5.58,0.21c1.03,0.22,2.06,1.27,2.7,2.21c0.67,0.97-1.05,2.43-3.01,2.62
			c-0.62,0.06-1.25,0.06-1.88,0.09c-14.7,0.76-29.42,1.37-44.11,2.35c-11.55,0.77-23.07,2.03-34.61,3.02
			c-2.48,0.21-3.98,1.25-4.65,3.77c-2.24,8.47-4.68,16.89-6.9,25.36c-0.47,1.79-0.48,3.73-0.46,5.6c0.01,0.76,0.55,1.61,1.08,2.2
			c0.18,0.19,1.23-0.13,1.66-0.49c3.14-2.59,6.19-5.29,9.35-7.85c2.67-2.17,5.33-4.39,8.22-6.23c3.43-2.18,7.11-0.47,7.68,3.51
			c0.35,2.46,0.21,4.99,0.22,7.49c0.01,3.13-0.12,6.27,0,9.4c0.03,0.71,0.72,1.54,1.33,2.02c0.29,0.23,1.27-0.06,1.68-0.41
			c2.36-2.06,4.62-4.23,6.95-6.31c1.87-1.67,3.67-3.43,5.72-4.86c3.17-2.21,6.21-0.97,7.1,2.75c0.73,3.04,1.17,6.16,2.13,9.12
			c0.26,0.81,2.14,1.86,2.91,1.62c7.31-2.24,13.81-5.79,18.04-12.53c1.49-2.38,2.98-4.76,4.64-7.02c0.5-0.67,1.61-1.33,2.39-1.27
			c2.95,0.23,4.28,4.43,7.98,3.45c0.19-0.05,1.49,2.54,1.56,3.93c0.2,4.06-0.06,8.14,0.06,12.21c0.07,2.37,2.11,3.46,3.81,2.06
			c3.12-2.59,6.34-5.15,9.02-8.17c6.85-7.74,13.41-15.75,20.14-23.61c1.62-1.89,3.31-3.76,5.18-5.39c1.85-1.61,4.96-0.34,4.86,2.01
			c-0.13,3.09-0.58,6.19-1.19,9.23c-1.22,6.14-2.68,12.23-3.93,18.36c-0.17,0.81,0.35,1.76,0.55,2.65c0.85-0.22,1.93-0.19,2.5-0.71
			c2.06-1.92,3.92-4.04,5.91-6.05c1.32-1.33,2.63-2.69,4.1-3.84c1.88-1.47,4.94-0.23,4.96,2.07c0.02,2.79-0.36,5.59-0.64,8.38
			c-0.42,4.14-2.62,8.24-0.14,12.41c3.6-2.23,5.41-5.97,7.42-9.4c5.23-8.91,10.2-17.98,15.19-27.03c1-1.81,0.18-3.22-1.75-3.14
			c-3.44,0.14-6.87,0.42-10.3,0.75c-1.59,0.15-3.17,0.5-3.86-1.46c-0.55-1.56,0.72-2.86,3.49-3.41c2.76-0.55,5.55-1.2,8.34-1.32
			c9.83-0.43,8.76-0.67,12.69-8.35c1.26-2.47,2.92-4.77,4.62-6.97c0.36-0.46,1.84-0.51,2.5-0.17c0.68,0.35,1.41,1.45,1.36,2.17
			c-0.11,1.53-0.64,3.04-1.14,4.52c-2.11,6.27-3.24,7.06,5.46,6.77c3.43-0.11,6.87-0.05,10.29,0.16c0.63,0.04,1.57,1.15,1.67,1.87
			c0.08,0.59-0.81,1.84-1.39,1.91c-5.27,0.65-10.56,1.3-15.86,1.56c-3.56,0.17-5.68,1.53-7.03,4.9
			c-8.3,20.63-16.76,41.19-25.11,61.79c-5.17,12.78-10.2,25.61-15.35,38.4c-1.17,2.9-2.51,5.74-3.94,8.52
			c-0.72,1.41-1.93,2.72-3.71,1.88c-1.74-0.82-1.55-2.29-0.87-3.95c9.44-23.21,18.85-46.43,28.16-69.69
			c1.26-3.15,1.96-6.53,2.92-9.81l0.41-0.25L296.71,94.57z M64.91,102.19c-0.43-0.14-1.12-0.57-1.33-0.4
			c-8.82,7.35-17.6,14.74-26.35,22.16c-0.37,0.32-0.45,0.97-0.67,1.47c0.58,0.13,1.25,0.52,1.72,0.35c6.48-2.31,12.5-5.5,17.78-9.96
			c3.84-3.24,7.06-7,8.82-11.8C65.08,103.48,64.91,102.82,64.91,102.19z M134.81,45.12c0.62-0.03,1.24-0.1,1.86-0.09
			c3.71,0.07,5.78-1.72,6.27-5.41c0.12-0.91,0.59-1.78,0.69-2.69c0.06-0.54-0.12-1.32-0.49-1.64c-0.31-0.26-1.26-0.23-1.59,0.06
			c-3,2.68-5.95,5.42-8.85,8.21c-0.18,0.18,0.02,1.17,0.3,1.32C133.51,45.14,134.2,45.06,134.81,45.12z"/>
		<path class="st0" d="M451.03,71.93c-1.22,1.3-2.65,2.47-3.63,3.93c-3.47,5.18-6.72,10.52-10.21,15.69
			c-1.56,2.31-3.38,4.49-5.34,6.48c-0.71,0.72-2.36,1.19-3.26,0.87c-0.93-0.33-1.93-1.7-2.07-2.72c-0.33-2.45-0.17-4.97-0.21-7.46
			l0.55-0.26l-0.37,0.44c-1.88,2.45-3.73,4.93-5.66,7.35c-0.96,1.21-1.95,2.45-3.12,3.46c-2.03,1.77-5.41,0.76-6.04-1.78
			c-0.37-1.5-0.7-3.1-0.59-4.63c0.35-4.98,0.94-9.94,1.38-14.91c0.05-0.58-0.21-1.19-0.33-1.78c-0.57,0.21-1.32,0.26-1.67,0.67
			c-4.14,4.69-8.2,9.46-12.32,14.17c-2.59,2.96-4.9,3.98-6.18,2.72c-1.99-1.96-0.68-4.05-0.04-6.1c1.5-4.76,2.99-9.51,4.48-14.27
			c0.39-0.44,0.81-0.86,1.14-1.34c0.08-0.12-0.18-0.46-0.29-0.7c-0.22,0.74-0.43,1.47-0.65,2.21c-1.15,0.91-2.58,1.61-3.39,2.76
			c-2.54,3.57-4.8,7.34-7.26,10.97c-1.22,1.8-2.53,3.58-4.02,5.17c-1.98,2.1-5.51,1.16-5.72-1.68c-0.3-4.02-0.09-8.09,0.12-12.13
			c0.11-2.17,0.71-4.31,0.97-6.48c0.04-0.37-0.46-0.83-0.79-1.18c-0.05-0.05-0.56,0.23-0.76,0.45c-0.42,0.46-0.83,0.95-1.15,1.48
			c-8.44,14.29-17.1,28.45-25.17,42.94c-3.32,5.96-5.39,12.63-7.99,18.99c-0.81,1.97-2.15,2.9-3.42,2.23
			c-1.72-0.9-1.86-2.5-1.41-4.01c0.81-2.69,1.68-5.41,2.89-7.93c3.95-8.17,7.67-16.48,12.21-24.32
			c7.37-12.74,15.26-25.18,23.06-37.67c1.47-2.35,3.41-4.44,5.32-6.47c0.5-0.53,1.97-0.79,2.57-0.44c0.95,0.56,2.1,1.7,2.15,2.65
			c0.11,2.14-0.33,4.32-0.68,6.46c-0.87,5.24-1.84,10.46-2.69,15.71c-0.08,0.52,0.37,1.12,0.57,1.69c0.49-0.34,1.13-0.58,1.45-1.05
			c4.94-7.24,9.76-14.57,14.8-21.75c1.6-2.27,3.66-4.25,5.69-6.16c0.52-0.49,1.9-0.57,2.6-0.24c0.7,0.33,1.56,1.47,1.47,2.15
			c-0.34,2.75-0.9,5.48-1.6,8.17c-1.17,4.5-4.42,8.34-4.25,13.28c-0.16,0.21-0.33,0.41-0.49,0.62c0.1-0.27,0.21-0.53,0.31-0.8
			c3.25-0.96,4.53-4.08,6.76-6.16c1.59-1.49,3.03-3.2,4.8-4.43c0.84-0.58,2.53-0.66,3.45-0.2c0.91,0.46,1.83,1.88,1.86,2.9
			c0.06,2.14-0.43,4.31-0.76,6.46c-0.72,4.62-1.5,9.23-2.18,13.86c-0.07,0.5,0.26,1.43,0.6,1.53c0.47,0.14,1.37-0.15,1.63-0.55
			c2.93-4.42,5.71-8.93,8.65-13.34c1.37-2.06,2.9-4.03,4.57-5.85c0.46-0.5,1.79-0.63,2.51-0.36c0.74,0.28,1.76,1.29,1.72,1.92
			c-0.18,2.75-0.7,5.49-1.11,8.23c-0.09,0.62-0.3,1.23-0.28,1.84c0.02,0.58,0.27,1.16,0.42,1.74c0.46-0.26,1.12-0.41,1.37-0.81
			c5.58-9.03,11.14-18.07,16.65-27.15c2.43-4,4.68-8.11,7.11-12.12c0.63-1.04,1.59-1.9,2.5-2.73c1.01-0.92,3.76,0,3.78,1.3
			c0.02,2.15,0.13,4.41-0.46,6.43c-1.32,4.48-2.94,8.89-4.64,13.25c-4.9,12.5-9.95,24.93-14.81,37.44
			c-1.11,2.86-1.69,5.93-2.51,8.91l-0.4,0.25l0.25-0.39c5.05-6.32,10.1-12.64,15.16-18.94c1.95-2.43,3.89-4.89,5.96-7.23
			c0.8-0.91,1.89-1.61,2.94-2.24c1.69-1.03,4.17,0.1,4.36,2c0.15,1.54,0.29,3.14,0.03,4.64c-1.3,7.37-2.56,14.76-4.17,22.06
			c-1.24,5.6-4.92,9.28-10.43,10.93c-0.57,0.17-1.61-0.67-2.18-1.28c-0.27-0.29-0.07-1.19,0.15-1.73c0.22-0.55,0.62-1.17,1.11-1.45
			c5.59-3.11,7.1-8.32,7.58-14.18c0.18-2.16,0.84-4.28,1.15-6.43c0.17-1.2,0.07-2.44,0.09-3.66c-1.14,0.88-2.49,1.59-3.37,2.68
			c-3.31,4.15-6.45,8.44-9.68,12.64c-4.38,5.69-8.73,11.41-13.22,17.02c-1.97,2.47-4.26,3.09-5.5,1.87
			c-1.62-1.6-1.08-3.43-0.41-5.21c3.66-9.62,7.31-19.25,11.03-28.85c1.92-4.94,4.07-9.8,5.91-14.77c0.62-1.69,0.63-3.6,0.92-5.41
			c2.13-0.5,1.59-2.31,1.82-3.73c0.17-0.2,0.34-0.4,0.51-0.59c-0.1,0.26-0.21,0.53-0.31,0.79
			C451.18,68.93,450.93,70.34,451.03,71.93z"/>
		<path class="st0" d="M235.05,116.81c2.56,0,5.03-0.06,7.5,0.06c0.43,0.02,1.2,0.85,1.15,1.22c-0.1,0.84-0.5,2.22-0.99,2.33
			c-3.95,0.83-7.94,1.7-11.95,2.03c-18.99,1.55-38.02,2.7-57,4.44c-24.55,2.26-49.2,4.01-73.15,10.59
			c-1.18,0.32-2.49,0.52-3.69,0.37c-0.73-0.09-1.8-0.86-1.92-1.48c-0.14-0.7,0.41-1.96,1.02-2.3c1.61-0.9,3.38-1.69,5.18-2.05
			c9.79-1.97,19.55-4.21,29.43-5.57c21.97-3.04,44.06-4.97,66.22-6.29C209.64,119.39,222.38,117.94,235.05,116.81z"/>
		<path class="st0" d="M425.72,52.92c-0.44,2.05-3.86,3.92-5.92,2.87c-0.62-0.32-1.01-2.39-0.6-3.19c1.05-2,3.32-2.34,5.68-1.15
			C425.31,51.66,425.45,52.42,425.72,52.92z"/>
	</g>
</g>
</svg>
